{"glyphs":{"￿":{"ha":968,"x_min":121,"x_max":846,"o":"m 121 0 l 121 1024 l 846 1024 l 846 0 l 121 0 m 230 109 l 739 109 l 739 916 l 230 916 l 230 109 z "},"东":{"ha":1389,"x_min":12,"x_max":1381,"o":"m 153 409 l 153 512 l 309 873 l 42 873 l 42 976 l 353 976 l 433 1162 l 549 1137 l 479 976 l 1347 976 l 1347 873 l 434 873 l 277 512 l 685 512 l 685 809 l 799 809 l 799 512 l 1283 512 l 1283 409 l 799 409 l 799 9 q 623 -161 799 -161 q 419 -159 533 -161 q 399 -37 411 -106 q 591 -50 488 -49 q 685 47 685 -50 l 685 409 l 153 409 m 351 328 l 442 258 q 90 -116 288 77 q 12 -40 54 -78 q 351 328 193 131 m 930 237 l 1006 311 q 1381 -13 1194 157 l 1297 -98 q 930 237 1111 85 z "},"中":{"ha":1389,"x_min":114,"x_max":1280,"o":"m 114 862 l 636 862 l 636 1158 l 753 1158 l 753 862 l 1280 862 l 1280 243 l 1169 243 l 1169 317 l 753 317 l 753 -188 l 636 -188 l 636 317 l 225 317 l 225 243 l 114 243 l 114 862 m 1169 762 l 753 762 l 753 417 l 1169 417 l 1169 762 m 225 417 l 636 417 l 636 762 l 225 762 l 225 417 z "},"亚":{"ha":1389,"x_min":23,"x_max":1366,"o":"m 23 10 l 461 10 l 461 961 l 76 961 l 76 1064 l 1316 1064 l 1316 961 l 926 961 l 926 10 l 1366 10 l 1366 -90 l 23 -90 l 23 10 m 575 10 l 812 10 l 812 961 l 575 961 l 575 10 m 975 256 q 1198 801 1084 477 l 1308 758 q 1073 211 1181 429 l 975 256 m 195 804 q 406 268 311 531 l 293 218 q 98 760 203 501 l 195 804 z "},"利":{"ha":1389,"x_min":16,"x_max":1289,"o":"m 16 161 q 323 650 198 359 l 23 650 l 23 749 l 349 749 l 349 953 q 72 927 209 939 q 45 1030 62 977 q 709 1099 370 1056 l 736 996 q 452 964 593 979 l 452 749 l 760 749 l 760 650 l 452 650 l 452 469 l 511 526 q 765 292 639 417 l 682 208 q 452 446 600 304 l 452 -180 l 349 -180 l 349 498 q 71 39 232 235 q 16 161 34 127 m 1181 1128 l 1289 1128 l 1289 -2 q 1115 -173 1289 -174 q 935 -172 1059 -173 q 914 -50 926 -116 q 1081 -62 1024 -62 q 1181 40 1181 -63 l 1181 1128 m 860 992 l 963 992 l 963 135 l 860 135 l 860 992 z "},"南":{"ha":1389,"x_min":35,"x_max":1350,"o":"m 35 988 l 644 988 l 644 1141 l 755 1141 l 755 988 l 1350 988 l 1350 892 l 755 892 l 755 753 l 1275 753 l 1275 -16 q 1118 -176 1275 -174 q 894 -172 1028 -177 q 873 -60 886 -121 q 1078 -68 1008 -68 q 1168 10 1168 -68 l 1168 659 l 229 659 l 229 -181 l 122 -181 l 122 753 l 644 753 l 644 892 l 35 892 l 35 988 m 282 197 l 646 197 l 646 345 l 326 345 l 326 435 l 751 435 q 883 649 817 532 l 983 593 q 863 435 917 503 l 1072 435 l 1072 345 l 751 345 l 751 197 l 1115 197 l 1115 108 l 751 108 l 751 -153 l 646 -153 l 646 108 l 282 108 l 282 197 m 415 595 l 495 649 q 621 493 564 569 l 532 437 q 415 595 477 516 z "},"国":{"ha":1389,"x_min":102,"x_max":1289,"o":"m 102 1084 l 1289 1084 l 1289 -181 l 1184 -181 l 1184 -113 l 206 -113 l 206 -182 l 102 -182 l 102 1084 m 1184 988 l 206 988 l 206 -17 l 1184 -17 l 1184 988 m 269 219 l 643 219 l 643 488 l 316 488 l 316 580 l 643 580 l 643 762 l 290 762 l 290 854 l 1099 854 l 1099 762 l 743 762 l 743 580 l 1072 580 l 1072 488 l 743 488 l 743 219 l 1120 219 l 1120 127 l 269 127 l 269 219 m 814 401 l 890 458 q 1017 313 964 380 l 937 252 q 814 401 872 340 z "},"埃":{"ha":1389,"x_min":9,"x_max":1382,"o":"m 481 314 l 848 314 q 857 482 855 385 l 635 482 q 524 336 582 398 q 439 401 488 364 q 635 703 570 541 l 734 672 q 688 577 712 622 l 1293 577 l 1293 482 l 961 482 q 954 314 960 387 l 1348 314 l 1348 219 l 968 219 q 1382 -74 1099 -20 q 1302 -182 1339 -130 q 908 149 1043 -95 q 433 -199 815 -66 q 363 -98 404 -154 q 829 219 752 9 l 481 219 l 481 314 m 9 138 q 203 186 101 159 l 203 715 l 27 715 l 27 814 l 203 814 l 203 1137 l 305 1137 l 305 814 l 456 814 l 456 715 l 305 715 l 305 214 q 450 257 375 235 q 453 150 450 192 q 30 22 243 92 l 9 138 m 1116 1022 q 1362 702 1257 843 l 1268 635 q 1192 749 1231 692 q 666 718 909 736 q 545 694 612 714 l 496 801 q 598 863 551 821 q 827 1166 720 981 l 936 1117 q 689 816 802 939 q 1130 837 937 826 q 1035 966 1083 902 l 1116 1022 z "},"塞":{"ha":1389,"x_min":19,"x_max":1373,"o":"m 60 441 l 446 441 l 446 541 l 156 541 l 156 622 l 446 622 l 446 718 l 118 718 l 118 802 l 446 802 l 446 897 l 544 897 l 544 802 l 846 802 l 846 897 l 944 897 l 944 802 l 1280 802 l 1280 718 l 944 718 l 944 622 l 1240 622 l 1240 541 l 944 541 l 944 441 l 1335 441 l 1335 357 l 967 357 q 1373 159 1120 219 q 1303 56 1333 106 q 849 357 1021 151 l 535 357 q 84 43 353 170 q 19 132 58 83 q 405 357 231 208 l 60 357 l 60 441 m 130 -35 l 644 -35 l 644 97 l 358 97 l 358 184 l 644 184 l 644 310 l 742 310 l 742 184 l 1005 184 l 1005 97 l 742 97 l 742 -35 l 1248 -35 l 1248 -121 l 130 -121 l 130 -35 m 79 1025 l 650 1025 q 594 1117 623 1072 l 690 1160 q 773 1025 735 1090 l 1313 1025 l 1313 827 l 1213 827 l 1213 938 l 179 938 l 179 827 l 79 827 l 79 1025 m 544 441 l 846 441 l 846 541 l 544 541 l 544 441 m 544 622 l 846 622 l 846 718 l 544 718 l 544 622 z "},"宾":{"ha":1389,"x_min":23,"x_max":1370,"o":"m 23 229 l 278 229 l 278 777 q 1104 835 741 783 l 1141 730 q 384 682 836 699 l 384 542 l 1278 542 l 1278 447 l 958 447 l 958 229 l 1370 229 l 1370 131 l 23 131 l 23 229 m 81 1004 l 671 1004 q 605 1126 640 1067 l 700 1168 q 792 1004 746 1091 l 1316 1004 l 1316 749 l 1213 749 l 1213 909 l 184 909 l 184 749 l 81 749 l 81 1004 m 384 229 l 854 229 l 854 447 l 384 447 l 384 229 m 815 16 l 865 104 q 1340 -81 1139 5 l 1280 -186 q 815 16 1043 -73 m 492 108 l 556 18 q 100 -189 349 -89 q 46 -93 77 -146 q 492 108 269 -9 z "},"尔":{"ha":1389,"x_min":20,"x_max":1356,"o":"m 416 1156 l 524 1121 q 445 969 488 1043 l 1337 969 l 1337 866 q 1184 608 1265 725 q 1081 656 1147 630 q 1213 866 1156 756 l 380 866 q 107 535 264 691 q 20 616 80 568 q 416 1156 292 865 m 661 797 l 770 797 l 770 7 q 602 -162 770 -162 q 415 -159 530 -162 q 393 -44 408 -105 q 574 -55 522 -55 q 661 35 661 -55 l 661 797 m 382 581 l 488 534 q 145 -25 334 218 q 49 44 103 3 q 382 581 250 284 m 914 519 l 1001 578 q 1356 54 1196 311 l 1255 -13 q 914 519 1097 258 z "},"尼":{"ha":1389,"x_min":22,"x_max":1370,"o":"m 297 664 q 106 -174 298 68 q 22 -83 73 -135 q 191 688 193 106 l 191 1082 l 1265 1082 l 1265 621 l 1160 621 l 1160 664 l 297 664 m 490 621 l 600 621 l 600 267 q 1211 566 913 383 l 1282 478 q 600 157 992 304 l 600 50 q 690 -43 600 -43 l 1114 -43 q 1230 41 1215 -43 q 1255 245 1245 127 q 1370 204 1312 222 q 1333 -14 1359 112 q 1135 -140 1308 -140 l 665 -140 q 490 29 490 -140 l 490 621 m 297 984 l 297 762 l 1160 762 l 1160 984 l 297 984 z "},"律":{"ha":1389,"x_min":18,"x_max":1370,"o":"m 496 578 l 799 578 l 799 706 l 448 706 l 448 793 l 799 793 l 799 919 l 507 919 l 507 1006 l 799 1006 l 799 1148 l 901 1148 l 901 1006 l 1237 1006 l 1237 793 l 1370 793 l 1370 706 l 1237 706 l 1237 441 l 1137 441 l 1137 492 l 901 492 l 901 355 l 1280 355 l 1280 268 l 901 268 l 901 140 l 1347 140 l 1347 54 l 901 54 l 901 -180 l 799 -180 l 799 54 l 393 54 l 393 140 l 799 140 l 799 268 l 469 268 l 469 355 l 799 355 l 799 492 l 496 492 l 496 578 m 18 355 q 336 798 184 523 l 429 749 q 305 549 368 643 l 305 -180 l 205 -180 l 205 410 q 65 246 136 320 q 18 355 43 306 m 23 778 q 343 1159 212 930 l 438 1105 q 79 680 296 877 q 23 778 56 730 m 901 578 l 1137 578 l 1137 706 l 901 706 l 901 578 m 1137 919 l 901 919 l 901 793 l 1137 793 l 1137 919 z "},"总":{"ha":1389,"x_min":18,"x_max":1371,"o":"m 195 923 l 788 923 q 940 1162 873 1046 l 1044 1107 q 906 923 977 1015 l 1194 923 l 1194 370 l 1085 370 l 1085 429 l 304 429 l 304 370 l 195 370 l 195 923 m 1085 825 l 304 825 l 304 527 l 1085 527 l 1085 825 m 368 299 l 473 299 l 473 62 q 568 -44 473 -44 l 841 -44 q 941 37 921 -44 q 966 189 954 79 q 1070 149 1005 172 q 1031 -21 1053 45 q 846 -139 989 -139 l 547 -139 q 368 43 368 -139 l 368 299 m 156 309 l 258 276 q 117 -73 202 106 q 18 -29 73 -54 q 156 309 96 130 m 1059 261 l 1137 321 q 1371 43 1261 182 l 1280 -29 q 1059 261 1184 106 m 578 345 l 661 399 q 838 182 757 298 l 747 119 q 578 345 666 241 m 346 1109 l 429 1162 q 575 985 510 1076 l 483 926 q 346 1109 425 1010 z "},"日":{"ha":1389,"x_min":212,"x_max":1179,"o":"m 212 1065 l 1179 1065 l 1179 -166 l 1063 -166 l 1063 -70 l 327 -70 l 327 -166 l 212 -166 l 212 1065 m 327 456 l 327 29 l 1063 29 l 1063 456 l 327 456 m 327 964 l 327 558 l 1063 558 l 1063 964 l 327 964 z "},"比":{"ha":1389,"x_min":75,"x_max":1367,"o":"m 700 1154 l 812 1154 l 812 580 q 1246 979 1076 770 l 1343 907 q 812 446 1123 665 l 812 54 q 891 -36 812 -36 l 1123 -36 q 1226 44 1213 -36 q 1251 271 1242 147 q 1367 231 1308 249 q 1335 5 1355 105 q 1154 -135 1306 -135 l 856 -135 q 700 35 700 -135 l 700 1154 m 231 1118 l 231 711 l 613 711 l 613 610 l 231 610 l 231 33 q 600 201 372 93 q 605 79 600 138 q 267 -71 406 -1 q 157 -146 208 -102 l 75 -40 q 118 59 118 -7 l 118 1118 l 231 1118 z "},"洲":{"ha":1389,"x_min":19,"x_max":1298,"o":"m 178 393 q 282 352 228 371 q 160 -168 222 109 l 47 -131 q 178 393 129 131 m 144 1126 q 365 939 260 1036 q 288 858 323 895 q 79 1055 157 988 l 144 1126 m 81 783 q 297 618 193 706 q 224 534 252 566 q 19 710 123 629 l 81 783 m 536 1124 l 636 1124 l 636 699 q 583 166 637 328 q 361 -180 530 -13 q 282 -94 326 -139 q 486 216 430 43 q 536 694 536 367 l 536 1124 m 1196 1125 l 1298 1125 l 1298 -168 l 1196 -168 l 1196 1125 m 872 1075 l 972 1075 l 972 -87 l 872 -87 l 872 1075 m 990 722 l 1069 749 q 1168 446 1119 603 l 1078 416 q 990 722 1040 572 m 661 732 l 741 759 q 842 455 793 616 l 753 427 q 661 732 712 584 m 406 764 l 498 739 q 392 399 448 550 q 301 432 351 416 q 406 764 369 589 z "},"菲":{"ha":1389,"x_min":31,"x_max":1358,"o":"m 812 768 l 918 768 l 918 663 l 1324 663 l 1324 573 l 918 573 l 918 395 l 1313 395 l 1313 306 l 918 306 l 918 124 l 1351 124 l 1351 35 l 918 35 l 918 -182 l 812 -182 l 812 768 m 79 657 l 471 657 l 471 768 l 576 768 l 576 -182 l 471 -182 l 471 29 l 43 29 l 43 119 l 471 119 l 471 300 l 84 300 l 84 390 l 471 390 l 471 568 l 79 568 l 79 657 m 31 1006 l 420 1006 l 420 1155 l 526 1155 l 526 1006 l 863 1006 l 863 1156 l 968 1156 l 968 1006 l 1358 1006 l 1358 916 l 968 916 l 968 804 l 863 804 l 863 916 l 526 916 l 526 804 l 420 804 l 420 916 l 31 916 l 31 1006 z "},"部":{"ha":1389,"x_min":27,"x_max":1364,"o":"m 1364 271 q 1181 18 1364 37 q 997 24 1112 10 q 979 143 990 73 q 1149 127 1078 127 q 1257 291 1268 127 q 1050 588 1252 436 q 1229 977 1138 763 l 952 977 l 952 -180 l 849 -180 l 849 1078 l 1337 1078 l 1337 966 q 1173 611 1284 829 q 1364 271 1364 462 m 125 380 l 711 380 l 711 -172 l 610 -172 l 610 -71 l 225 -71 l 225 -173 l 125 -173 l 125 380 m 610 290 l 225 290 l 225 22 l 610 22 l 610 290 m 27 612 l 461 612 q 593 867 542 752 l 693 816 q 568 612 634 713 l 804 612 l 804 522 l 27 522 l 27 612 m 57 970 l 396 970 q 316 1120 370 1031 l 410 1163 q 496 1002 471 1061 l 430 970 l 780 970 l 780 880 l 57 880 l 57 970 m 148 809 l 231 859 q 354 667 298 763 l 262 614 q 148 809 220 699 z "},"非":{"ha":1389,"x_min":33,"x_max":1360,"o":"m 800 1147 l 909 1147 l 909 953 l 1331 953 l 1331 855 l 909 855 l 909 589 l 1310 589 l 1310 492 l 909 492 l 909 220 l 1360 220 l 1360 123 l 909 123 l 909 -173 l 800 -173 l 800 1147 m 33 220 l 479 220 l 479 492 l 81 492 l 81 589 l 479 589 l 479 855 l 60 855 l 60 953 l 479 953 l 479 1147 l 587 1147 l 587 -173 l 479 -173 l 479 123 l 33 123 l 33 220 z "},"韩":{"ha":1389,"x_min":23,"x_max":1347,"o":"m 23 169 l 301 169 l 301 300 l 175 300 l 175 253 l 83 253 l 83 804 l 301 804 l 301 915 l 31 915 l 31 1002 l 301 1002 l 301 1159 l 396 1159 l 396 1002 l 644 1002 l 644 915 l 396 915 l 396 804 l 614 804 l 614 260 l 522 260 l 522 300 l 396 300 l 396 169 l 671 169 l 671 82 l 396 82 l 396 -184 l 301 -184 l 301 82 l 23 82 l 23 169 m 669 441 l 906 441 l 906 637 l 696 637 l 696 726 l 906 726 l 906 892 l 674 892 l 674 984 l 906 984 l 906 1154 l 1006 1154 l 1006 984 l 1344 984 l 1344 892 l 1006 892 l 1006 726 l 1298 726 l 1298 637 l 1006 637 l 1006 441 l 1347 441 q 1329 147 1340 220 q 1171 5 1314 5 q 1051 6 1105 5 q 1028 106 1043 50 q 1152 100 1089 100 q 1234 170 1225 100 q 1246 349 1244 234 l 1006 349 l 1006 -184 l 906 -184 l 906 349 l 669 349 l 669 441 m 175 382 l 522 382 l 522 513 l 175 513 l 175 382 m 522 722 l 175 722 l 175 592 l 522 592 l 522 722 z "}}}
